<svg width="80" height="80" viewBox="0 0 80 80" fill="none" xmlns="http://www.w3.org/2000/svg">
<g clip-path="url(#clip0_1218_5839)">
<path d="M43.2581 20.8989H43.2215C42.7005 20.9133 42.2056 21.1304 41.8422 21.504C41.4787 21.8776 41.2754 22.3783 41.2754 22.8995C41.2754 23.4207 41.4787 23.9214 41.8422 24.295C42.2056 24.6686 42.7005 24.8857 43.2215 24.9H43.2581C43.7791 24.8857 44.2739 24.6686 44.6374 24.295C45.0008 23.9214 45.2042 23.4207 45.2042 22.8995C45.2042 22.3783 45.0008 21.8776 44.6374 21.504C44.2739 21.1304 43.7791 20.9133 43.2581 20.8989Z" fill="#CF1016"/>
<path d="M74.1944 5.80376C71.7068 3.3162 68.285 1.99316 64.2975 1.99316H40.899C35.2684 1.99316 30.7674 4.65753 28.5877 9.19213H20.2044C14.6394 9.19213 10.2298 10.6676 7.09595 13.5743C3.71519 16.7142 2.00195 21.3632 2.00195 27.3931V46.8423C2.00195 52.8722 3.71519 57.5211 7.09595 60.6595C10.2267 63.5678 14.6364 65.0417 20.2044 65.0417H34.4042V74.0012H23.4449C22.9239 74.0156 22.429 74.2326 22.0656 74.6063C21.7022 74.9799 21.4988 75.4805 21.4988 76.0018C21.4988 76.523 21.7022 77.0236 22.0656 77.3972C22.429 77.7708 22.9239 77.9879 23.4449 78.0023H49.357C49.878 77.9879 50.3728 77.7708 50.7363 77.3972C51.0997 77.0236 51.3031 76.523 51.3031 76.0018C51.3031 75.4805 51.0997 74.9799 50.7363 74.6063C50.3728 74.2326 49.878 74.0156 49.357 74.0012H38.3962V65.0417H52.5975C58.1625 65.0417 62.5706 63.5678 65.7059 60.6595C69.0852 57.5211 70.7999 52.8722 70.7999 46.8423V42.0516C75.3361 39.872 78.0004 35.3694 78.0004 29.7404V15.7006C77.9989 11.7147 76.6835 8.29131 74.1944 5.80376ZM66.7988 46.8423C66.7988 56.2636 62.0203 61.0421 52.599 61.0421H20.2044C10.7816 61.0421 6.0046 56.2636 6.0046 46.8423V27.4007C6.0046 17.9778 10.7816 13.2009 20.2044 13.2009H27.3836C27.2593 14.0283 27.1977 14.8639 27.1991 15.7006V29.7404C27.1991 33.6866 28.545 37.2091 30.9884 39.6479C33.011 41.6706 35.7699 42.9403 38.8992 43.3183V46.4414C38.9054 47.2223 39.1214 47.987 39.5246 48.6558C39.9277 49.3245 40.5032 49.8725 41.1908 50.2426C41.8784 50.6126 42.6528 50.7911 43.433 50.7592C44.2132 50.7274 44.9705 50.4864 45.6256 50.0615L45.6455 50.0478L55.5454 43.4372H64.2975C65.1348 43.4386 65.9709 43.377 66.7988 43.2527V46.8423ZM73.9978 29.7419C73.9978 34.1835 71.8745 37.4896 68.1691 38.8233L68.1112 38.8431C66.8821 39.2489 65.5949 39.4512 64.3006 39.4422H54.9418C54.5462 39.4422 54.1596 39.5594 53.8306 39.779L43.4399 46.7173C43.386 46.7513 43.3237 46.7694 43.26 46.7694C43.1963 46.7694 43.134 46.7513 43.0801 46.7173C43.0276 46.6934 42.983 46.6551 42.9515 46.6068C42.9199 46.5585 42.9027 46.5022 42.9018 46.4445V41.4404C42.9018 40.91 42.6911 40.4014 42.3161 40.0264C41.9411 39.6513 41.4324 39.4406 40.902 39.4406C37.9816 39.4406 35.5321 38.5352 33.8204 36.822C32.1087 35.1087 31.2018 32.6608 31.2018 29.7404V15.7006C31.1925 14.4063 31.3948 13.1191 31.8008 11.89L31.8206 11.8306C33.1528 8.12517 36.4604 6.00191 40.902 6.00191H64.3006C70.1933 6.00191 74.0008 9.8125 74.0008 15.7022L73.9978 29.7419Z" fill="#205295"/>
<path d="M53.3371 20.8989H53.3035C52.7825 20.9133 52.2876 21.1304 51.9242 21.504C51.5608 21.8776 51.3574 22.3783 51.3574 22.8995C51.3574 23.4207 51.5608 23.9214 51.9242 24.295C52.2876 24.6686 52.7825 24.8857 53.3035 24.9H53.3371C53.8581 24.8857 54.3529 24.6686 54.7164 24.295C55.0798 23.9214 55.2832 23.4207 55.2832 22.8995C55.2832 22.3783 55.0798 21.8776 54.7164 21.504C54.3529 21.1304 53.8581 20.9133 53.3371 20.8989Z" fill="#CF1016"/>
<path d="M63.4182 20.8989H63.3816C62.8606 20.9133 62.3658 21.1304 62.0023 21.504C61.6389 21.8776 61.4355 22.3783 61.4355 22.8995C61.4355 23.4207 61.6389 23.9214 62.0023 24.295C62.3658 24.6686 62.8606 24.8857 63.3816 24.9H63.4182C63.9392 24.8857 64.4341 24.6686 64.7975 24.295C65.161 23.9214 65.3643 23.4207 65.3643 22.8995C65.3643 22.3783 65.161 21.8776 64.7975 21.504C64.4341 21.1304 63.9392 20.9133 63.4182 20.8989Z" fill="#CF1016"/>
</g>
<defs>
<clipPath id="clip0_1218_5839">
<rect width="76" height="76" fill="white" transform="translate(2 2)"/>
</clipPath>
</defs>
</svg>
