<svg width="80" height="80" viewBox="0 0 80 80" fill="none" xmlns="http://www.w3.org/2000/svg">
<g clip-path="url(#clip0_1218_5800)">
<path d="M66.0308 56.2967L60.088 62.2059L57.9298 60.0992C57.7388 59.9015 57.5121 59.7462 57.2633 59.6426C57.0144 59.539 56.7484 59.4891 56.4809 59.4959C56.2134 59.5028 55.9499 59.5662 55.7061 59.6824C55.4622 59.7987 55.243 59.9654 55.0613 60.1726C54.8796 60.3799 54.7391 60.6235 54.6482 60.8891C54.5573 61.1547 54.5179 61.4368 54.5321 61.7188C54.5464 62.0008 54.6141 62.2769 54.7313 62.5307C54.8485 62.7846 55.0128 63.011 55.2144 63.1967L58.7421 66.6425C59.1139 67.0056 59.6025 67.2063 60.1091 67.204C60.6157 67.2016 61.1026 66.9965 61.4714 66.63L68.772 59.3817C68.965 59.1922 69.1206 58.9643 69.2298 58.7111C69.3391 58.4579 69.3999 58.1844 69.4086 57.9064C69.4174 57.6283 69.374 57.3512 69.2809 57.0909C69.1878 56.8306 69.0469 56.5923 68.8662 56.3897C68.6856 56.1871 68.4688 56.0241 68.2283 55.9103C67.9877 55.7964 67.7283 55.7338 67.4648 55.7261C67.2013 55.7185 66.939 55.7659 66.6929 55.8656C66.4468 55.9653 66.2218 56.1153 66.0308 56.3071V56.2967Z" fill="#CF1016"/>
<path d="M77.9941 61.163C77.9482 58.9919 77.4856 56.8532 76.6343 54.8762C75.7995 52.9303 74.6126 51.1752 73.1402 49.7095V29.846C73.1402 24.0849 69.3022 17.3893 64.4048 14.6026L45.76 3.98775C41.167 1.33872 33.9712 1.33872 29.3881 3.98775L10.7354 14.6089C5.83606 17.3956 2 24.0912 2 29.8523V50.1622C2 55.9212 5.83606 62.6168 10.7354 65.4035L29.3802 76.0205C31.6767 77.345 34.6254 78.0062 37.5741 78.0062C40.5227 78.0062 43.4576 77.3471 45.7462 76.0267L50.7443 73.1941C53.6753 76.1961 57.5756 77.9138 61.6591 78.0009C65.7425 78.088 69.7054 76.538 72.7489 73.6635C74.4201 72.0972 75.7533 70.1704 76.6582 68.0135C77.5631 65.8565 78.0187 63.5196 77.9941 61.1609V61.163ZM35.57 73.6593C34.0757 73.4937 32.6236 73.0368 31.2873 72.3118L12.6327 61.6907C9.03772 59.6445 6.0001 54.3652 6.0001 50.1643V29.846C6.02207 28.5461 6.25814 27.2601 6.69776 26.0456L35.57 43.208V73.6593ZM37.5681 39.5598L8.56736 22.3098C9.69783 20.6203 11.1168 19.1811 12.6347 18.3196L31.2972 7.68178C34.6965 5.72108 40.4417 5.72108 43.8509 7.68178L62.5055 18.3029C64.0194 19.1644 65.4345 20.5974 66.5649 22.2827L37.5681 39.5598ZM43.841 72.3077C42.5089 73.0317 41.0605 73.4872 39.5702 73.6509V43.208L68.4365 26.031C68.8787 27.25 69.1168 28.5409 69.1401 29.846V46.7852L69.0057 46.7164C67.5226 45.9657 65.9376 45.464 64.308 45.2292C62.0951 44.9018 59.8422 45.0564 57.6882 45.6835C55.5342 46.3106 53.5248 47.3968 51.7839 48.8752C49.946 50.4274 48.4726 52.4065 47.4785 54.6584C46.4844 56.9102 45.9963 59.374 46.0525 61.8575C46.0942 64.6692 46.849 67.4177 48.2384 69.8171L43.841 72.3077ZM72.3991 67.5394C72.3892 67.5561 72.3813 67.5728 72.3714 67.5874C71.7711 68.6806 71.0039 69.6616 70.1006 70.4909L70.0788 70.5117C68.89 71.6345 67.5031 72.4989 65.9974 73.0553C64.4918 73.6118 62.8969 73.8495 61.3041 73.7547C59.7113 73.66 58.1519 73.2347 56.715 72.5032C55.2781 71.7717 53.9919 70.7484 52.9302 69.4918C52.8624 69.3669 52.783 69.2495 52.693 69.1413C52.3585 68.7479 52.0619 68.3203 51.8076 67.8648L51.7642 67.7918C50.6417 65.9198 50.0467 63.7496 50.0487 61.5342C50.0477 59.7051 50.4453 57.9002 51.2108 56.2591C51.9949 54.5988 53.1245 53.147 54.5152 52.0123C56.6601 50.2461 59.3048 49.2912 62.0253 49.3007C62.7004 49.2998 63.3746 49.3562 64.0411 49.4697C64.8388 49.608 65.6214 49.8302 66.3772 50.133C66.563 50.206 66.7448 50.2853 66.9266 50.3666C67.9712 50.8544 68.9436 51.4986 69.814 52.2793C69.8996 52.3581 69.9923 52.428 70.0907 52.4879C70.1678 52.5609 70.2468 52.636 70.3219 52.7111C71.4507 53.8146 72.3591 55.145 72.9939 56.6241C73.6234 58.0848 73.9656 59.6651 73.9999 61.2693C74.0496 63.4785 73.4937 65.6557 72.3991 67.5394Z" fill="#205295"/>
</g>
<defs>
<clipPath id="clip0_1218_5800">
<rect width="76" height="76" fill="white" transform="translate(2 2)"/>
</clipPath>
</defs>
</svg>
