<svg width="80" height="80" viewBox="0 0 80 80" fill="none" xmlns="http://www.w3.org/2000/svg">
<path d="M53.1504 54.9256H26.045C25.5389 54.9256 25.0535 55.1278 24.6956 55.4876C24.3377 55.8473 24.1366 56.3353 24.1366 56.8441C24.1366 57.3529 24.3377 57.8409 24.6956 58.2007C25.0535 58.5605 25.5389 58.7626 26.045 58.7626H53.1473C53.6534 58.7626 54.1389 58.5605 54.4967 58.2007C54.8546 57.8409 55.0557 57.3529 55.0557 56.8441C55.0557 56.3353 54.8546 55.8473 54.4967 55.4876C54.1389 55.1278 53.6534 54.9256 53.1473 54.9256H53.1504Z" fill="#CF1016"/>
<path d="M26.045 44.9633H39.5962C40.1023 44.9633 40.5877 44.7612 40.9456 44.4014C41.3035 44.0416 41.5046 43.5536 41.5046 43.0448C41.5046 42.536 41.3035 42.048 40.9456 41.6882C40.5877 41.3285 40.1023 41.1263 39.5962 41.1263H26.045C25.5389 41.1263 25.0535 41.3285 24.6956 41.6882C24.3377 42.048 24.1366 42.536 24.1366 43.0448C24.1366 43.5536 24.3377 44.0416 24.6956 44.4014C25.0535 44.7612 25.5389 44.9633 26.045 44.9633Z" fill="#CF1016"/>
<path d="M67.4725 8.56253C64.2252 5.00334 59.4069 3.19995 53.1504 3.19995H26.045C19.7855 3.19995 14.9702 5.00334 11.7229 8.56253C8.72134 11.8531 7.19922 16.4944 7.19922 22.3573V56.8411C7.19922 62.7056 8.72592 67.3468 11.7229 70.6374C14.9702 74.195 19.7885 76 26.045 76H53.1473C59.4069 76 64.2221 74.195 67.4695 70.6374C70.4725 67.3468 71.9992 62.7071 71.9992 56.8411V22.3573C71.9992 16.4944 70.4725 11.8531 67.4725 8.56253ZM68.1824 56.8411C68.1824 67.0122 63.1244 72.1676 53.1473 72.1676H26.045C16.0679 72.1676 11.0099 67.0122 11.0099 56.8411V22.3573C11.0099 12.1877 16.0679 7.0308 26.045 7.0308H53.1473C63.1244 7.0308 68.1824 12.1877 68.1824 22.3573V56.8411Z" fill="#205295"/>
<path d="M61.6175 25.6141H54.842C52.1565 25.6141 49.9717 23.3795 49.9717 20.6337V13.7363C49.9717 13.2275 49.7707 12.7395 49.4128 12.3798C49.0549 12.02 48.5695 11.8178 48.0633 11.8178C47.5572 11.8178 47.0718 12.02 46.7139 12.3798C46.356 12.7395 46.1549 13.2275 46.1549 13.7363V20.6337C46.1549 25.4929 50.0496 29.445 54.8374 29.445H61.6175C62.1237 29.445 62.6091 29.2429 62.967 28.8831C63.3249 28.5233 63.5259 28.0353 63.5259 27.5265C63.5259 27.0177 63.3249 26.5297 62.967 26.1699C62.6091 25.8101 62.1237 25.608 61.6175 25.608V25.6141Z" fill="#205295"/>
</svg>
