<svg width="80" height="80" viewBox="0 0 80 80" fill="none" xmlns="http://www.w3.org/2000/svg">
<g clip-path="url(#clip0_1218_5799)">
<path d="M56.5784 23.4133C56.9498 23.7863 57.4535 23.9973 57.9799 24.0003H72.3797C72.9102 24.0003 73.4191 23.7895 73.7942 23.4144C74.1694 23.0392 74.3801 22.5304 74.3801 21.9999C74.3801 21.4693 74.1694 20.9605 73.7942 20.5854C73.4191 20.2102 72.9102 19.9995 72.3797 19.9995H62.8277L77.4124 5.41313C77.7873 5.03825 77.9979 4.52982 77.9979 3.99967C77.9979 3.46952 77.7873 2.96108 77.4124 2.5862C77.0375 2.21133 76.5291 2.00073 75.9989 2.00073C75.4688 2.00073 74.9603 2.21133 74.5855 2.5862L60.0008 17.176V7.59321C60.0008 7.06267 59.7901 6.55385 59.4149 6.1787C59.0398 5.80355 58.5309 5.59281 58.0004 5.59281C57.4699 5.59281 56.9611 5.80355 56.5859 6.1787C56.2108 6.55385 56 7.06267 56 7.59321V21.9965C56.003 22.5228 56.214 23.0266 56.5869 23.3979L56.5784 23.4133Z" fill="#CF1016"/>
<path d="M42.0001 23.8008C42.0079 23.5333 41.962 23.267 41.865 23.0176C41.768 22.7681 41.622 22.5407 41.4355 22.3487C41.2491 22.1567 41.026 22.0041 40.7795 21.8999C40.533 21.7956 40.2681 21.7419 40.0005 21.7419C39.7329 21.7419 39.468 21.7956 39.2215 21.8999C38.975 22.0041 38.7519 22.1567 38.5655 22.3487C38.379 22.5407 38.233 22.7681 38.136 23.0176C38.0391 23.267 37.9931 23.5333 38.001 23.8008V25.3649H36.2572C32.2753 25.3649 29.0359 28.7326 29.0359 32.872C29.0359 37.6257 31.6524 39.1658 33.942 39.9804L38.001 41.3955V50.6001H37.0119C34.801 50.6001 33.0008 48.6716 33.0008 46.2998C33.0008 45.7693 32.7901 45.2605 32.4149 44.8854C32.0398 44.5102 31.5309 44.2994 31.0004 44.2994C30.4699 44.2994 29.9611 44.5102 29.5859 44.8854C29.2108 45.2605 29 45.7693 29 46.2998C29 50.8773 32.5935 54.5992 37.0119 54.5992H38.001V56.1924C37.9931 56.4599 38.0391 56.7262 38.136 56.9757C38.233 57.2251 38.379 57.4525 38.5655 57.6445C38.7519 57.8365 38.975 57.9891 39.2215 58.0933C39.468 58.1976 39.7329 58.2513 40.0005 58.2513C40.2681 58.2513 40.533 58.1976 40.7795 58.0933C41.026 57.9891 41.2491 57.8365 41.4355 57.6445C41.622 57.4525 41.768 57.2251 41.865 56.9757C41.962 56.7262 42.0079 56.4599 42.0001 56.1924V54.5924H43.7797C47.7617 54.5924 51.001 51.2247 51.001 47.0853C51.001 42.2785 48.2083 40.7281 46.095 39.9769L42.0001 38.5481V29.3572H43.0268C45.2377 29.3572 47.0379 31.2857 47.0379 33.6574C47.0379 34.188 47.2486 34.6968 47.6238 35.0719C47.9989 35.4471 48.5077 35.6578 49.0383 35.6578C49.5688 35.6578 50.0776 35.4471 50.4528 35.0719C50.8279 34.6968 51.0387 34.188 51.0387 33.6574C51.0387 29.0799 47.4451 25.3581 43.0268 25.3581H42.0001V23.8008ZM38.001 37.1603L35.2716 36.2071C33.752 35.6681 33.0367 35.1616 33.0367 32.872C33.0367 30.9383 34.481 29.364 36.2572 29.364H38.001V37.1603ZM44.7722 43.757C46.3483 44.3166 47.0071 44.9052 47.0071 47.0921C47.0071 49.0258 45.5628 50.6001 43.7866 50.6001H42.0001V42.7919L44.7722 43.757Z" fill="#205295"/>
<path d="M75.9996 38.0004C75.4691 38.0004 74.9602 38.2112 74.5851 38.5863C74.2099 38.9615 73.9992 39.4703 73.9992 40.0008C73.9992 58.7472 58.7472 73.9992 39.9991 73.9992C21.2511 73.9992 6.00081 58.7472 6.00081 40.0008C6.00081 21.2545 21.2528 6.00079 39.9991 6.00079C40.5297 6.00079 41.0385 5.79005 41.4136 5.4149C41.7888 5.03975 41.9995 4.53094 41.9995 4.0004C41.9995 3.46985 41.7888 2.96104 41.4136 2.58589C41.0385 2.21074 40.5297 2 39.9991 2C19.0471 2 2 19.0471 2 40.0008C2 60.9546 19.0471 78 39.9991 78C60.9512 78 78 60.9529 78 40.0008C78 39.4703 77.7892 38.9615 77.4141 38.5863C77.0389 38.2112 76.5301 38.0004 75.9996 38.0004Z" fill="#205295"/>
</g>
<defs>
<clipPath id="clip0_1218_5799">
<rect width="76" height="76" fill="white" transform="translate(2 2)"/>
</clipPath>
</defs>
</svg>
