<svg width="80" height="80" viewBox="0 0 80 80" fill="none" xmlns="http://www.w3.org/2000/svg">
<path d="M50.6094 33.9966H29.4201C28.8893 33.9966 28.3803 34.2073 28.005 34.5824C27.6298 34.9574 27.4189 35.4661 27.4189 35.9966C27.4189 36.527 27.6298 37.0357 28.005 37.4108C28.3803 37.7859 28.8893 37.9966 29.4201 37.9966H50.6094C51.1401 37.9966 51.6491 37.7859 52.0244 37.4108C52.3997 37.0357 52.6105 36.527 52.6105 35.9966C52.6105 35.4661 52.3997 34.9574 52.0244 34.5824C51.6491 34.2073 51.1401 33.9966 50.6094 33.9966Z" fill="#CF1016"/>
<path d="M54.1409 19.593H25.8885C25.3578 19.593 24.8488 19.8038 24.4735 20.1788C24.0982 20.5539 23.8874 21.0626 23.8874 21.593C23.8874 22.1235 24.0982 22.6322 24.4735 23.0073C24.8488 23.3823 25.3578 23.5931 25.8885 23.5931H54.1409C54.6716 23.5931 55.1806 23.3823 55.5559 23.0073C55.9312 22.6322 56.1421 22.1235 56.1421 21.593C56.1421 21.0626 55.9312 20.5539 55.5559 20.1788C55.1806 19.8038 54.6716 19.593 54.1409 19.593Z" fill="#CF1016"/>
<path d="M67.8741 5.56309C65.0654 2.74371 60.8621 1.6001 53.3653 1.6001H26.6645C18.9332 1.6001 14.6399 2.83358 11.8542 5.87851C9.11606 8.86177 8 13.4556 8 21.7375V62.2662C8 69.8679 10.9973 72.1675 12.7693 72.8618C14.4883 73.5314 18.0869 73.875 22.879 68.6591C23.8629 67.5825 25.0918 67.0239 26.3418 67.0926C27.5919 67.1613 28.7732 67.8485 29.6442 69.0309L33.218 73.8997C34.9812 76.2838 37.3949 77.6001 39.9973 77.6001C42.5996 77.6001 45.0063 76.2873 46.7835 73.8997L50.3486 69.0415C51.2213 67.8556 52.3938 67.1649 53.6509 67.1032C54.908 67.0415 56.1299 67.5931 57.1172 68.6732C61.9253 73.9049 65.5238 73.5631 67.2394 72.9023C69.0166 72.2098 71.9998 69.9067 71.9998 62.3296V21.7464C72.0174 13.2107 70.8238 8.52169 67.8741 5.56309ZM67.9975 62.3102C67.9975 66.7261 66.855 68.7455 65.7883 69.1613C64.7974 69.5472 62.7734 68.9094 60.067 65.9649C58.2597 63.9878 55.9042 62.9693 53.4394 63.1032C50.9745 63.2371 48.7212 64.5005 47.1256 66.6715L43.5641 71.5208C42.5679 72.8635 41.3002 73.6019 39.9973 73.6019C38.6943 73.6019 37.4249 72.8635 36.4357 71.5314L32.8672 66.6697C31.2803 64.5005 29.0306 63.2336 26.5552 63.1032C26.4141 63.0944 26.2713 63.0909 26.132 63.0909C23.8206 63.0909 21.6307 64.1023 19.9276 65.9649C17.2317 68.8988 15.2112 69.5296 14.2168 69.1367C13.143 68.719 11.997 66.6944 11.997 62.2644V21.7358C11.997 14.6521 12.8345 10.7155 14.7986 8.57631C16.7169 6.48468 20.2643 5.59305 26.6645 5.59305H53.3635C59.598 5.59305 63.0907 6.42653 65.0407 8.38248C67.13 10.4847 68.0151 14.4829 67.9975 21.7428V62.3102Z" fill="#205295"/>
</svg>
