<svg width="80" height="80" viewBox="0 0 80 80" fill="none" xmlns="http://www.w3.org/2000/svg">
<path d="M29.7687 24.89C29.5196 24.89 29.273 24.9386 29.043 25.033C28.813 25.1274 28.604 25.2658 28.428 25.4402C28.2521 25.6146 28.1126 25.8216 28.0176 26.0494C27.9226 26.2772 27.8739 26.5213 27.8743 26.7678V40.0039C27.8743 40.5011 28.0739 40.9779 28.4291 41.3295C28.7844 41.681 29.2663 41.8785 29.7687 41.8785C30.2711 41.8785 30.7529 41.681 31.1082 41.3295C31.4635 40.9779 31.663 40.5011 31.663 40.0039V26.7678C31.6635 26.5213 31.6147 26.2772 31.5197 26.0494C31.4247 25.8216 31.2852 25.6146 31.1093 25.4402C30.9333 25.2658 30.7244 25.1274 30.4943 25.033C30.2643 24.9386 30.0177 24.89 29.7687 24.89Z" fill="#205295"/>
<path d="M40.0008 24.89C39.7516 24.8898 39.5048 24.9383 39.2746 25.0326C39.0444 25.1269 38.8352 25.2652 38.6591 25.4396C38.483 25.6141 38.3434 25.8212 38.2483 26.0491C38.1532 26.277 38.1044 26.5212 38.1048 26.7678V53.2353C38.0975 53.4861 38.1411 53.7359 38.2331 53.9697C38.3251 54.2036 38.4635 54.4168 38.6402 54.5968C38.8169 54.7767 39.0283 54.9198 39.2618 55.0175C39.4954 55.1152 39.7464 55.1655 40 55.1655C40.2535 55.1655 40.5045 55.1152 40.7381 55.0175C40.9717 54.9198 41.1831 54.7767 41.3598 54.5968C41.5365 54.4168 41.6749 54.2036 41.7668 53.9697C41.8588 53.7359 41.9024 53.4861 41.8951 53.2353V26.7678C41.8955 26.5213 41.8468 26.2772 41.7518 26.0494C41.6568 25.8216 41.5173 25.6146 41.3414 25.4402C41.1654 25.2658 40.9565 25.1274 40.7264 25.033C40.4964 24.9386 40.2498 24.89 40.0008 24.89Z" fill="#205295"/>
<path d="M19.5366 24.89C19.2875 24.89 19.041 24.9386 18.8109 25.033C18.5809 25.1274 18.3719 25.2658 18.196 25.4402C18.02 25.6146 17.8805 25.8216 17.7855 26.0494C17.6905 26.2772 17.6418 26.5213 17.6422 26.7678V53.2353C17.6422 53.7325 17.8418 54.2093 18.1971 54.5609C18.5523 54.9125 19.0342 55.11 19.5366 55.11C20.039 55.11 20.5208 54.9125 20.8761 54.5609C21.2314 54.2093 21.431 53.7325 21.431 53.2353V26.7678C21.4314 26.5213 21.3827 26.2772 21.2877 26.0494C21.1927 25.8216 21.0532 25.6146 20.8772 25.4402C20.7013 25.2658 20.4923 25.1274 20.2623 25.033C20.0322 24.9386 19.7856 24.89 19.5366 24.89Z" fill="#205295"/>
<path d="M29.7687 48.0512C29.5196 48.0512 29.273 48.0998 29.043 48.1942C28.813 48.2886 28.604 48.427 28.428 48.6014C28.2521 48.7758 28.1126 48.9828 28.0176 49.2107C27.9226 49.4385 27.8739 49.6826 27.8743 49.929V53.2369C27.8743 53.4831 27.9233 53.7268 28.0185 53.9543C28.1137 54.1817 28.2532 54.3884 28.4291 54.5625C28.6051 54.7365 28.8139 54.8746 29.0437 54.9688C29.2736 55.063 29.5199 55.1115 29.7687 55.1115C30.0174 55.1115 30.2638 55.063 30.4936 54.9688C30.7235 54.8746 30.9323 54.7365 31.1082 54.5625C31.2841 54.3884 31.4236 54.1817 31.5188 53.9543C31.614 53.7268 31.663 53.4831 31.663 53.2369V49.929C31.6635 49.6826 31.6147 49.4385 31.5197 49.2107C31.4247 48.9828 31.2852 48.7758 31.1093 48.6014C30.9333 48.427 30.7244 48.2886 30.4943 48.1942C30.2643 48.0998 30.0177 48.0512 29.7687 48.0512Z" fill="#CF1016"/>
<path d="M50.2313 38.1246C49.9824 38.1246 49.7359 38.1731 49.506 38.2674C49.276 38.3617 49.0671 38.4999 48.8912 38.6742C48.7153 38.8484 48.5758 39.0553 48.4806 39.2829C48.3855 39.5105 48.3367 39.7545 48.3369 40.0008V53.2353C48.3296 53.4861 48.3732 53.7359 48.4652 53.9697C48.5572 54.2036 48.6956 54.4168 48.8723 54.5968C49.049 54.7767 49.2604 54.9198 49.4939 55.0175C49.7275 55.1152 49.9785 55.1655 50.2321 55.1655C50.4856 55.1655 50.7366 55.1152 50.9702 55.0175C51.2037 54.9198 51.4151 54.7767 51.5918 54.5968C51.7685 54.4168 51.907 54.2036 51.9989 53.9697C52.0909 53.7359 52.1345 53.4861 52.1272 53.2353V40.0008C52.1274 39.7543 52.0785 39.5103 51.9833 39.2825C51.8881 39.0548 51.7485 38.8479 51.5724 38.6736C51.3963 38.4994 51.1872 38.3612 50.9571 38.267C50.727 38.1727 50.4803 38.1244 50.2313 38.1246Z" fill="#205295"/>
<path d="M50.2313 24.89C49.9822 24.89 49.7356 24.9386 49.5056 25.033C49.2756 25.1274 49.0666 25.2658 48.8906 25.4402C48.7147 25.6146 48.5752 25.8216 48.4802 26.0494C48.3852 26.2772 48.3365 26.5213 48.3369 26.7678V30.0772C48.3511 30.5653 48.557 31.0286 48.9109 31.3688C49.2647 31.7091 49.7387 31.8994 50.2321 31.8994C50.7254 31.8994 51.1994 31.7091 51.5532 31.3688C51.9071 31.0286 52.113 30.5653 52.1272 30.0772V26.7678C52.1276 26.5212 52.0789 26.277 51.9838 26.0491C51.8886 25.8212 51.749 25.6141 51.5729 25.4396C51.3968 25.2652 51.1876 25.1269 50.9574 25.0326C50.7272 24.9383 50.4804 24.8898 50.2313 24.89Z" fill="#CF1016"/>
<path d="M70.6923 14.4177C67.4377 11.486 62.8494 10 57.0532 10H22.9468C17.1506 10 12.5623 11.486 9.30924 14.4177C5.78597 17.5904 4 22.3019 4 28.4186V51.5798C4 57.6966 5.78597 62.4081 9.30924 65.5823C12.5623 68.5124 17.1506 70 22.9468 70H57.0532C62.8494 70 67.4377 68.5124 70.6923 65.5823C74.214 62.4081 76 57.6966 76 51.5798V28.4186C76 22.3019 74.214 17.5966 70.6923 14.4177ZM72.2113 51.5814C72.2113 61.3153 67.1109 66.2507 57.0532 66.2507H22.9468C12.8938 66.2507 7.78873 61.3153 7.78873 51.5814V28.4202C7.78873 18.6862 12.8891 13.7509 22.9468 13.7509H57.0532C67.1062 13.7509 72.2113 18.6862 72.2113 28.4202V51.5814Z" fill="#205295"/>
<path d="M60.4618 24.89C59.9605 24.8925 59.4806 25.0915 59.1273 25.4435C58.7739 25.7955 58.576 26.2717 58.5768 26.7678V53.2353C58.5768 53.4815 58.6258 53.7253 58.721 53.9527C58.8162 54.1802 58.9558 54.3868 59.1317 54.5609C59.3076 54.735 59.5164 54.8731 59.7463 54.9673C59.9761 55.0615 60.2225 55.11 60.4712 55.11C60.72 55.11 60.9663 55.0615 61.1962 54.9673C61.426 54.8731 61.6348 54.735 61.8107 54.5609C61.9866 54.3868 62.1262 54.1802 62.2214 53.9527C62.3166 53.7253 62.3656 53.4815 62.3656 53.2353V26.7678C62.366 26.5206 62.317 26.2757 62.2214 26.0473C62.1258 25.8189 61.9855 25.6114 61.8085 25.4369C61.6316 25.2624 61.4215 25.1242 61.1903 25.0303C60.9592 24.9365 60.7116 24.8888 60.4618 24.89Z" fill="#205295"/>
</svg>
