<svg id="Layer_1" viewBox="0 0 24 24" xmlns="http://www.w3.org/2000/svg" data-name="Layer 1"><path d="m16 11.026v-7.026h2v5c-.941.599-1.5 1.192-2 2.026zm5.685 5.242-3.041-.507c-.373-.062-.644-.382-.644-.76 0-.551.448-1 1-1h2c.552 0 1 .449 1 1h2c0-1.654-1.346-3-3-3v-2h-2v2c-1.654 0-3 1.346-3 3 0 1.36.974 2.51 2.315 2.733l3.041.507c.373.062.644.382.644.76 0 .551-.448 1-1 1h-2c-.552 0-1-.449-1-1h-2c0 1.654 1.346 3 3 3v2h2v-2c1.654 0 3-1.346 3-3 0-1.36-.974-2.51-2.315-2.733zm-20.685 7.732h2v-7h-2zm22-24h-2v8h2zm-13.141 5h2.051c-.425-2.506-2.403-4.486-4.91-4.91v2.051c1.401.363 2.496 1.458 2.859 2.859zm-7.293 3.02c-.351-.595-.566-1.28-.566-2.02 0-1.862 1.278-3.413 3-3.859v-2.051c-2.833.479-5 2.943-5 5.91 0 1.294.416 2.49 1.115 3.471zm7.293-1.02c-.446 1.722-1.997 3-3.859 3-.741 0-1.425-.215-2.02-.566l-1.451 1.451c.981.699 2.177 1.115 3.471 1.115 2.967 0 5.431-2.167 5.91-5zm-3.859 17h2v-10.262c-.64.165-1.308.262-2 .262zm5-11.76v11.76h2v-14.13c-.507.915-1.189 1.719-2 2.37z"/></svg>