<svg width="80" height="80" viewBox="0 0 80 80" fill="none" xmlns="http://www.w3.org/2000/svg">
<g clip-path="url(#clip0_1218_5852)">
<path d="M23.8004 38.3991C24.27 38.3973 24.7238 38.2298 25.082 37.9262L36.2394 28.6116L40.4498 35.6453C40.725 36.1157 41.0986 36.5211 41.5451 36.8337C41.9916 37.1463 42.5003 37.3587 43.0365 37.4565C43.5774 37.5457 44.1312 37.5188 44.6609 37.3775C45.1906 37.2361 45.6842 36.9837 46.1088 36.6368L46.1419 36.61L57.4821 27.1425C57.8893 26.8024 58.1447 26.3145 58.1921 25.786C58.2396 25.2576 58.0752 24.732 57.7351 24.3248C57.395 23.9176 56.907 23.6622 56.3786 23.6147C55.8502 23.5673 55.3246 23.7317 54.9174 24.0718L43.7601 33.3879L39.5497 26.3701C39.2676 25.8916 38.8852 25.4798 38.4289 25.1631C37.9726 24.8463 37.4531 24.6321 36.9061 24.5352C36.3654 24.452 35.8131 24.4866 35.2869 24.6365C34.7608 24.7864 34.2732 25.0481 33.8575 25.4038L22.5189 34.8571C22.2036 35.1204 21.977 35.4745 21.8699 35.8712C21.7628 36.2678 21.7805 36.6878 21.9205 37.0741C22.0605 37.4604 22.3161 37.7941 22.6524 38.0301C22.9888 38.266 23.3896 38.3927 23.8004 38.3928V38.3991Z" fill="#CF1016"/>
<path d="M75.9991 2.00006H3.99987C3.73256 1.99255 3.46645 2.03872 3.21728 2.13583C2.96812 2.23294 2.74095 2.37902 2.54923 2.56544C2.3575 2.75186 2.2051 2.97484 2.10103 3.22118C1.99696 3.46752 1.94336 3.73221 1.94336 3.99963C1.94336 4.26705 1.99696 4.53176 2.10103 4.7781C2.2051 5.02444 2.3575 5.2474 2.54923 5.43383C2.74095 5.62025 2.96812 5.76634 3.21728 5.86345C3.46645 5.96056 3.73256 6.00673 3.99987 5.99923H5.56517V47.5704C5.58566 51.5223 6.68752 54.6135 8.83922 56.7605C10.9909 58.9074 14.09 59.9998 18.0419 59.9998H38.0015V67.5663L24.7066 74.2137C24.2472 74.4595 23.9019 74.8748 23.744 75.3713C23.5861 75.8679 23.6282 76.4064 23.8613 76.8724C24.0944 77.3383 24.5001 77.695 24.9921 77.8664C25.4841 78.0379 26.0236 78.0106 26.4958 77.7904L40.0018 71.0389L53.5063 77.7904C53.7834 77.9306 54.0896 78.0035 54.4001 78.0032C54.8485 78.0006 55.283 77.8474 55.6339 77.5681C55.9848 77.2889 56.2317 76.8999 56.335 76.4635C56.4382 76.0272 56.3919 75.5688 56.2034 75.1619C56.0149 74.7551 55.6951 74.4233 55.2955 74.22L42.0006 67.5726V60.0061H61.9256C65.879 60.0061 68.9734 58.9153 71.1235 56.7652C73.2736 54.6151 74.3644 51.5191 74.3644 47.5657V5.99923H76.0007C76.268 6.00673 76.5341 5.96056 76.7832 5.86345C77.0324 5.76634 77.2596 5.62025 77.4513 5.43383C77.643 5.2474 77.7955 5.02444 77.8995 4.7781C78.0036 4.53176 78.0572 4.26705 78.0572 3.99963C78.0572 3.73221 78.0036 3.46752 77.8995 3.22118C77.7955 2.97484 77.643 2.75186 77.4513 2.56544C77.2596 2.37902 77.0324 2.23294 76.7832 2.13583C76.5341 2.03872 76.268 1.99255 76.0007 2.00006H75.9991ZM70.3637 47.5562C70.3637 53.3146 67.6839 55.9959 61.924 55.9959H18.0403C12.2882 55.9959 9.59431 53.3162 9.56435 47.5562V5.99923H70.3637V47.5562Z" fill="#205295"/>
</g>
<defs>
<clipPath id="clip0_1218_5852">
<rect width="76" height="76" fill="white" transform="translate(2 2)"/>
</clipPath>
</defs>
</svg>
