<svg width="80" height="80" viewBox="0 0 80 80" fill="none" xmlns="http://www.w3.org/2000/svg">
<g clip-path="url(#clip0_1218_5848)">
<path d="M52.8484 9.4624L51.4521 10.8635L51.4473 10.8587L51.6371 10.6713L52.8484 9.4624Z" fill="#205295"/>
<path d="M38.5588 21.9355C36.6358 20.0116 34.1051 18.814 31.3981 18.5469C28.691 18.2797 25.9751 18.9595 23.7131 20.4704C21.4511 21.9813 19.783 24.2297 18.993 26.8327C18.2031 29.4357 18.3401 32.2321 19.3809 34.7453C20.4216 37.2585 22.3017 39.3331 24.7006 40.6155C27.0996 41.8979 29.869 42.3088 32.5369 41.7781C35.2049 41.2475 37.6062 39.8082 39.3319 37.7054C41.0575 35.6026 42.0005 32.9664 42.0003 30.2462C42.0017 28.7027 41.6984 27.174 41.1078 25.7479C40.5172 24.3218 39.651 23.0263 38.5588 21.9355ZM30.2529 38.0017C28.4597 38.0028 26.7215 37.3819 25.3347 36.2449C23.9479 35.108 22.9982 33.5254 22.6475 31.7667C22.2968 30.0081 22.5668 28.1822 23.4115 26.6003C24.2562 25.0184 25.6233 23.7783 27.2798 23.0914C28.9363 22.4046 30.7797 22.3133 32.496 22.8333C34.2122 23.3533 35.6951 24.4524 36.6918 25.9432C37.6885 27.434 38.1374 29.2242 37.9621 31.0089C37.7867 32.7936 36.9979 34.4623 35.7301 35.7306C35.0113 36.4506 34.1575 37.0218 33.2177 37.4115C32.2779 37.8012 31.2704 38.0018 30.2529 38.0017Z" fill="#205295"/>
<path d="M60.9061 45.3293L45.3134 60.9509C45.1289 61.1411 44.9083 61.2927 44.6646 61.3969C44.4209 61.5011 44.1589 61.5558 43.8939 61.5579C43.6289 61.5599 43.3661 61.5093 43.1208 61.4088C42.8755 61.3084 42.6526 61.1602 42.4651 60.9729C42.2776 60.7855 42.1293 60.5628 42.0286 60.3176C41.928 60.0724 41.8771 59.8097 41.879 59.5446C41.8808 59.2796 41.9353 59.0175 42.0393 58.7738C42.1433 58.53 42.2947 58.3093 42.4847 58.1246L58.0774 42.5151C58.262 42.3249 58.4826 42.1732 58.7263 42.069C58.97 41.9648 59.232 41.9101 59.497 41.908C59.762 41.906 60.0248 41.9567 60.2701 42.0571C60.5154 42.1575 60.7383 42.3057 60.9257 42.4931C61.1132 42.6804 61.2616 42.9031 61.3623 43.1483C61.4629 43.3935 61.5138 43.6563 61.512 43.9213C61.5101 44.1864 61.4556 44.4483 61.3516 44.6921C61.2476 44.9359 61.0962 45.1566 60.9061 45.3414V45.3293Z" fill="#CF1016"/>
<path d="M27.105 70.5881L25.7231 71.9724L25.7207 71.97L27.105 70.5881Z" fill="#205295"/>
<path d="M6.01669 38.8812V38.8884L4.01953 38.7922L6.01669 38.8812Z" fill="#205295"/>
<path d="M71.98 54.8368L71.9776 54.8392L70.6582 53.5222L71.98 54.8368Z" fill="#205295"/>
<path d="M70.625 53.4885L70.5625 53.426L70.5937 53.4549L70.625 53.4885Z" fill="#205295"/>
<path d="M70.625 53.4885L70.5625 53.426L70.5937 53.4549L70.625 53.4885Z" fill="#205295"/>
<path d="M71.9743 25.6677L70.8424 26.8069L70.6621 26.9847L71.9743 25.6677Z" fill="#205295"/>
<path d="M71.9805 25.6749L70.8438 26.8069L71.9757 25.6677L71.9805 25.6749Z" fill="#205295"/>
<path d="M38.8314 4.02352L38.7305 2.02637H38.7353L38.8314 4.02352Z" fill="#205295"/>
<path d="M71.9804 54.8369C75.8358 50.9636 78.0002 45.721 78.0002 40.256C78.0002 34.791 75.8358 29.5484 71.9804 25.6751L70.8436 26.807L70.6634 26.9849L71.9756 25.6679L54.2824 8.0372C52.2563 6.00403 49.8261 4.41867 47.1489 3.38371C44.4716 2.34875 41.607 1.88723 38.7402 2.02891L38.8363 4.02602L38.7354 2.02891L19.2541 2.96378L19.3454 4.96095L19.2493 2.96378C15.0017 3.15221 10.9775 4.91962 7.96478 7.91985C4.95211 10.9201 3.16805 14.937 2.96204 19.1837L3.3105 19.2006L4.392 19.2559L2.95001 19.1886L2.01511 38.6986C1.88575 41.574 2.35588 44.4449 3.39561 47.1288C4.43534 49.8128 6.02195 52.2511 8.05464 54.289L25.7142 71.9654L27.0985 70.5835L25.7166 71.9678C29.5827 75.8275 34.8225 77.9953 40.2855 77.9953C45.7485 77.9953 50.9883 75.8275 54.8544 71.9678L71.9684 54.8369L70.649 53.5199L70.6153 53.4862L70.5528 53.4237L70.5841 53.4526L71.9804 54.8369ZM69.1397 52.013L52.0305 69.1391L53.4388 70.5522L52.0281 69.1415C48.9119 72.2514 44.6892 73.9981 40.2867 73.9981C35.8841 73.9981 31.6615 72.2514 28.5453 69.1415L10.8882 51.4651C9.24828 49.8211 7.96802 47.8541 7.12858 45.6891C6.28914 43.5241 5.90883 41.2083 6.01183 38.8885L4.01469 38.7924L6.01183 38.8813L6.94912 19.3808L4.94958 19.2823L6.94912 19.376C6.96595 19.0396 6.99479 18.7079 7.03805 18.3787C7.06208 18.1864 7.08851 17.9965 7.12216 17.8091C7.13898 17.7129 7.15583 17.6144 7.17505 17.5207C7.21831 17.2899 7.26878 17.0616 7.32646 16.8357C7.36011 16.7035 7.39374 16.5714 7.43219 16.4416C7.47065 16.3118 7.5091 16.1748 7.55236 16.0426C7.59562 15.9104 7.65571 15.723 7.71339 15.5619C7.77107 15.4009 7.80711 15.3216 7.85518 15.1871C7.92728 15.002 8.00418 14.8193 8.09551 14.6367C8.25573 14.273 8.43598 13.9181 8.63626 13.572C8.73479 13.399 8.83574 13.2283 8.94148 13.0625C9.04723 12.8967 9.15778 12.7284 9.27073 12.565C9.38369 12.4016 9.49663 12.243 9.6168 12.0843L9.81389 11.832C9.86676 11.7672 9.91724 11.7047 9.97251 11.6422C10.0278 11.5797 10.1071 11.4787 10.1792 11.4018C10.2513 11.3249 10.357 11.2 10.4508 11.1014C11.2316 10.2603 12.1206 9.52651 13.0944 8.9192C13.1713 8.87113 13.2482 8.82305 13.3347 8.77979C13.348 8.76925 13.3626 8.76041 13.378 8.75338C13.4549 8.70532 13.5342 8.65964 13.6183 8.61638C13.7481 8.54107 13.8779 8.47141 14.0077 8.40732C14.1374 8.33762 14.2696 8.27272 14.4018 8.21023L14.7743 8.04201C14.9474 7.9651 15.1204 7.89538 15.2958 7.82808C15.4352 7.77281 15.5746 7.72236 15.7164 7.6743C15.8582 7.62623 16.0192 7.57093 16.173 7.52526C16.4326 7.44355 16.697 7.37147 16.9662 7.30899C17.1488 7.26573 17.3314 7.22487 17.5165 7.18882L17.8722 7.12633L18.0933 7.09265C18.1486 7.09265 18.2039 7.07346 18.2615 7.06866C18.3192 7.06385 18.4057 7.047 18.4778 7.04219C18.6196 7.02297 18.7614 7.00856 18.9056 6.99895C18.9753 6.99895 19.045 6.98451 19.1147 6.98211L19.4295 6.96292L38.9204 6.0256C41.2296 5.91025 43.5372 6.28131 45.6938 7.11472C47.8503 7.94812 49.8078 9.22531 51.4393 10.8635L51.6291 10.676L52.8308 9.47438L51.4345 10.8755L69.1397 28.5062C69.3968 28.7658 69.6444 29.0301 69.8823 29.3041C69.9592 29.3906 70.0337 29.4795 70.1082 29.5685C70.2548 29.7439 70.3966 29.9217 70.536 30.102C70.6249 30.2173 70.7115 30.3424 70.798 30.4529C70.8845 30.5635 70.9758 30.6932 71.0599 30.823L71.132 30.9312C71.1993 31.0273 71.2618 31.1234 71.3243 31.222C71.4949 31.4839 71.656 31.7507 71.805 32.0222C71.8578 32.116 71.9107 32.2073 71.9612 32.301C72.7918 33.8288 73.3773 35.4776 73.6964 37.187C73.7204 37.3 73.7396 37.4273 73.7589 37.5307C73.7589 37.5859 73.7781 37.6412 73.7853 37.6965C73.7925 37.7518 73.8117 37.8599 73.8213 37.9368C73.831 38.0137 73.8454 38.1002 73.855 38.1771C74.1705 40.69 73.909 43.2418 73.0903 45.6385C72.2715 48.0352 70.9171 50.2136 69.1301 52.0082L69.1397 52.013Z" fill="#205295"/>
<path d="M4.387 19.2535L2.95703 19.1862V19.1814L3.30551 19.1982L4.387 19.2535Z" fill="#205295"/>
</g>
<defs>
<clipPath id="clip0_1218_5848">
<rect width="76" height="76" fill="white" transform="translate(2 2)"/>
</clipPath>
</defs>
</svg>
